<svg width="34" height="19" viewBox="0 0 34 19" fill="none" xmlns="http://www.w3.org/2000/svg">
<mask id="path-1-inside-1_13_609" fill="white">
<path fill-rule="evenodd" clip-rule="evenodd" d="M16.7979 19C22.2096 19 33.5958 14.7467 33.5958 9.5C33.5958 4.25329 22.2096 0 16.7979 0C11.3862 0 0 4.25329 0 9.5C0 14.7467 11.3862 19 16.7979 19ZM16.7982 14.9287C19.8906 14.9287 22.3975 12.4983 22.3975 9.50017C22.3975 6.50205 19.8906 4.07159 16.7982 4.07159C13.7058 4.07159 11.1989 6.50205 11.1989 9.50017C11.1989 12.4983 13.7058 14.9287 16.7982 14.9287Z"/>
</mask>
<path d="M31.5958 9.5C31.5958 10.0587 31.2883 10.8263 30.3275 11.7741C29.3837 12.7053 27.9977 13.6157 26.3492 14.4201C23.0205 16.0444 19.1228 17 16.7979 17V21C19.8847 21 24.386 19.8289 28.1034 18.0149C29.9778 17.1002 31.7766 15.9635 33.1368 14.6216C34.4801 13.2963 35.5958 11.5646 35.5958 9.5H31.5958ZM16.7979 2C19.1228 2 23.0205 2.95556 26.3492 4.5799C27.9977 5.38435 29.3837 6.29471 30.3275 7.2259C31.2883 8.17375 31.5958 8.94126 31.5958 9.5H35.5958C35.5958 7.43539 34.4801 5.70372 33.1368 4.37844C31.7766 3.03651 29.9778 1.89979 28.1034 0.985073C24.386 -0.828917 19.8847 -2 16.7979 -2V2ZM2 9.5C2 8.94126 2.30755 8.17375 3.26829 7.2259C4.21214 6.29471 5.59814 5.38435 7.24666 4.5799C10.5753 2.95556 14.473 2 16.7979 2V-2C13.7111 -2 9.2098 -0.828917 5.49246 0.985073C3.61797 1.89979 1.81919 3.03651 0.459016 4.37844C-0.884277 5.70372 -2 7.43539 -2 9.5H2ZM16.7979 17C14.473 17 10.5753 16.0444 7.24666 14.4201C5.59814 13.6157 4.21214 12.7053 3.26829 11.7741C2.30755 10.8263 2 10.0587 2 9.5H-2C-2 11.5646 -0.884277 13.2963 0.459016 14.6216C1.81919 15.9635 3.61797 17.1002 5.49246 18.0149C9.2098 19.8289 13.7111 21 16.7979 21V17ZM20.3975 9.50017C20.3975 11.3358 18.8449 12.9287 16.7982 12.9287V16.9287C20.9364 16.9287 24.3975 13.6608 24.3975 9.50017H20.3975ZM16.7982 6.07159C18.8449 6.07159 20.3975 7.66454 20.3975 9.50017H24.3975C24.3975 5.33955 20.9364 2.07159 16.7982 2.07159V6.07159ZM13.1989 9.50017C13.1989 7.66455 14.7515 6.07159 16.7982 6.07159V2.07159C12.6601 2.07159 9.19891 5.33955 9.19891 9.50017H13.1989ZM16.7982 12.9287C14.7515 12.9287 13.1989 11.3358 13.1989 9.50017H9.19891C9.19891 13.6608 12.6601 16.9287 16.7982 16.9287V12.9287Z" fill="#F95738" mask="url(#path-1-inside-1_13_609)"/>
</svg>
