<svg width="20" height="28" viewBox="0 0 20 28" fill="none" xmlns="http://www.w3.org/2000/svg">
<path fill-rule="evenodd" clip-rule="evenodd" d="M17 6.5C17 10.0898 13.866 13 10 13C6.13401 13 3 10.0898 3 6.5C3 2.91016 6.13401 0 10 0C13.866 0 17 2.91016 17 6.5ZM15 6.5C15 8.8483 12.9036 11 10 11C7.09641 11 5 8.8483 5 6.5C5 4.1517 7.09641 2 10 2C12.9036 2 15 4.1517 15 6.5Z" fill="#F95738"/>
<path d="M0 18.2791C0 16.6222 1.34315 15.2791 3 15.2791H16.5015C18.1583 15.2791 19.5015 16.6222 19.5015 18.2791V25.1086C19.5015 26.4763 18.5862 27.6302 17.3348 27.9913V19.8827C17.3348 18.2258 15.9917 16.8827 14.3348 16.8827H5.16699C3.51014 16.8827 2.16699 18.2258 2.16699 19.8827V27.9914C0.915398 27.6304 0 26.4764 0 25.1086V18.2791Z" fill="#F95738"/>
</svg>
