<svg width="31" height="28" viewBox="0 0 31 28" fill="none" xmlns="http://www.w3.org/2000/svg">
<path d="M20.1377 1.90163C19.543 1.20201 18.7217 0.770553 17.8155 0.773452C16.9094 0.776382 16.0901 1.21312 15.4987 1.91655L2.00002 1.95991C0.895452 1.96345 0.00209589 2.86174 0.00464411 3.96632L0.00729914 5.11885C0.00986262 6.22343 0.907354 7.11598 2.01191 7.11241L15.2786 7.06981C15.881 7.94646 16.8022 8.50557 17.8334 8.50224C18.8645 8.49895 19.7831 7.93394 20.3816 7.05342L28.5856 7.02705C29.6901 7.02348 30.5835 6.1252 30.581 5.02061L30.5783 3.86809C30.5758 2.76353 29.6782 1.87099 28.5737 1.87453L20.1377 1.90163Z" fill="#0D3B66"/>
<path d="M0.0268456 13.5594C0.0301263 14.9823 1.18622 16.132 2.60906 16.1274L6.28173 16.1156C6.88337 16.9042 7.75614 17.3989 8.72626 17.3958C9.6964 17.3927 10.5669 16.8924 11.1649 16.0999L28.0302 16.0457C29.453 16.0412 30.6038 14.884 30.6005 13.4612C30.5972 12.0384 29.4411 10.8887 28.0183 10.8932L11.1531 10.9474C10.5515 10.1587 9.67863 9.66389 8.70843 9.66701C7.73823 9.67012 6.86768 10.1705 6.26969 10.9631L2.59716 10.9749C1.17434 10.9795 0.023565 12.1366 0.0268456 13.5594Z" fill="#0D3B66"/>
<path d="M2.58819 26.4324C1.16535 26.4369 0.00925226 25.2872 0.00597162 23.8644C0.00269098 22.4415 1.15346 21.2844 2.57628 21.2798L18.3048 21.2293C18.9028 20.4368 19.7733 19.9365 20.7435 19.9334C21.7136 19.9303 22.5864 20.4249 23.188 21.2136L27.9974 21.1981C29.4202 21.1936 30.5763 22.3433 30.5796 23.7661C30.5829 25.1889 29.4321 26.3461 28.0093 26.3507L23.2 26.3661C22.602 27.1587 21.7315 27.659 20.7613 27.6622C19.7911 27.6653 18.9183 27.1705 18.3166 26.3818L2.58819 26.4324Z" fill="#0D3B66"/>
</svg>
