<svg width="17" height="17" viewBox="0 0 17 17" fill="none" xmlns="http://www.w3.org/2000/svg">
<path fill-rule="evenodd" clip-rule="evenodd" d="M8.5 17C13.1944 17 17 13.1944 17 8.5C17 3.80558 13.1944 0 8.5 0C3.80558 0 0 3.80558 0 8.5C0 13.1944 3.80558 17 8.5 17ZM10 14.8261C12.8667 14.1489 15 11.5736 15 8.5C15 7.32654 14.689 6.22572 14.145 5.27542L10 10.1812L10 14.8261ZM12.5317 3.40112C11.7993 2.8212 10.939 2.39574 10 2.17393L10 6.39749L12.5317 3.40112ZM7 14.8261L7 9.73304L6.88506 9.77839L2.94775 5.11847C2.34646 6.10365 2 7.26136 2 8.5C2 11.5736 4.1333 14.1489 7 14.8261ZM4.57293 3.31997L7 6.19248L7 2.17393C6.10537 2.38526 5.28216 2.78145 4.57293 3.31997Z" fill="#F95738"/>
</svg>
