<svg width="28" height="30" viewBox="0 0 28 30" fill="none" xmlns="http://www.w3.org/2000/svg">
<path d="M0 4.5C0 2.01472 2.01472 0 4.5 0C6.98528 0 9 2.01472 9 4.5C9 6.98528 6.98528 9 4.5 9C2.01472 9 0 6.98528 0 4.5Z" fill="#0D3B66"/>
<path d="M0 14.5C0 12.0147 2.01472 10 4.5 10C6.98528 10 9 12.0147 9 14.5C9 16.9853 6.98528 19 4.5 19C2.01472 19 0 16.9853 0 14.5Z" fill="#0D3B66"/>
<path d="M19 4.5C19 2.01472 21.0147 0 23.5 0C25.9853 0 28 2.01472 28 4.5C28 6.98528 25.9853 9 23.5 9C21.0147 9 19 6.98528 19 4.5Z" fill="#0D3B66"/>
<path d="M10 9.5C10 7.01472 12.0147 5 14.5 5C16.9853 5 19 7.01472 19 9.5C19 11.9853 16.9853 14 14.5 14C12.0147 14 10 11.9853 10 9.5Z" fill="#0D3B66"/>
<path d="M9.00262 20.5434C9.00407 18.0461 11.0297 16.0012 13.527 16.0026C16.0243 16.0041 18.0475 18.0513 18.0461 20.5486C18.0447 23.0459 16.019 25.0909 13.5217 25.0894C11.0245 25.088 9.00118 23.0407 9.00262 20.5434Z" fill="#0D3B66"/>
<path d="M18 15.5C18 13.0147 20.0147 11 22.5 11C24.9853 11 27 13.0147 27 15.5C27 17.9853 24.9853 20 22.5 20C20.0147 20 18 17.9853 18 15.5Z" fill="#0D3B66"/>
<path d="M18 25.5C18 23.0147 20.0147 21 22.5 21C24.9853 21 27 23.0147 27 25.5C27 27.9853 24.9853 30 22.5 30C20.0147 30 18 27.9853 18 25.5Z" fill="#0D3B66"/>
<path d="M0 25.5C0 23.0147 2.01472 21 4.5 21C6.98528 21 9 23.0147 9 25.5C9 27.9853 6.98528 30 4.5 30C2.01472 30 0 27.9853 0 25.5Z" fill="#0D3B66"/>
</svg>
