<svg width="25" height="34" viewBox="0 0 25 34" fill="none" xmlns="http://www.w3.org/2000/svg">
<mask id="path-1-inside-1_13_784" fill="white">
<path fill-rule="evenodd" clip-rule="evenodd" d="M5.51664 4.51365C8.71395 0.0670036 14.6814 -1.34765 19.3846 1.41435C22.9707 3.52027 24.8569 7.48758 24.5811 11.4874C24.574 13.3277 24.1093 15.1911 23.1398 16.8989C20.3638 21.7897 14.4325 23.6724 9.47117 21.4226L8.8763 22.4707L9.36601 22.7582L3.42812 33.2193L2.93849 32.9319L0.489624 31.4937L0 31.2062L5.93789 20.7451L6.42749 21.0327L6.42751 21.0326L6.9173 21.3202L6.91736 21.3201L6.42751 21.0325L7.05951 19.919C3.02525 16.5945 1.85095 10.6887 4.52938 5.96994C4.82447 5.45007 5.1552 4.96419 5.51664 4.51365Z"/>
</mask>
<path fill-rule="evenodd" clip-rule="evenodd" d="M5.51664 4.51365C8.71395 0.0670036 14.6814 -1.34765 19.3846 1.41435C22.9707 3.52027 24.8569 7.48758 24.5811 11.4874C24.574 13.3277 24.1093 15.1911 23.1398 16.8989C20.3638 21.7897 14.4325 23.6724 9.47117 21.4226L8.8763 22.4707L9.36601 22.7582L3.42812 33.2193L2.93849 32.9319L0.489624 31.4937L0 31.2062L5.93789 20.7451L6.42749 21.0327L6.42751 21.0326L6.9173 21.3202L6.91736 21.3201L6.42751 21.0325L7.05951 19.919C3.02525 16.5945 1.85095 10.6887 4.52938 5.96994C4.82447 5.45007 5.1552 4.96419 5.51664 4.51365Z" fill="#0D3B66"/>
<path d="M5.51664 4.51365L7.07669 5.76514L7.10967 5.72403L7.14045 5.68123L5.51664 4.51365ZM19.3846 1.41435L18.3719 3.13896L19.3846 1.41435ZM24.5811 11.4874L22.5858 11.3498L22.5813 11.4147L22.5811 11.4797L24.5811 11.4874ZM23.1398 16.8989L21.4005 15.9117L21.4005 15.9117L23.1398 16.8989ZM9.47117 21.4226L10.2971 19.6012L8.63354 18.8468L7.73184 20.4354L9.47117 21.4226ZM8.8763 22.4707L7.13696 21.4834L6.16412 23.1973L7.86352 24.1953L8.8763 22.4707ZM9.36601 22.7582L11.1053 23.7455L12.0782 22.0316L10.3788 21.0336L9.36601 22.7582ZM3.42812 33.2193L2.41549 34.944L4.16562 35.9716L5.16745 34.2066L3.42812 33.2193ZM2.93849 32.9319L1.92569 34.6564L1.92586 34.6566L2.93849 32.9319ZM0.489624 31.4937L1.50243 29.7691L1.50225 29.769L0.489624 31.4937ZM0 31.2062L-1.73933 30.2189L-2.71226 31.933L-1.01263 32.9309L0 31.2062ZM5.93789 20.7451L6.95067 19.0205L5.20048 17.9927L4.19856 19.7579L5.93789 20.7451ZM6.42749 21.0327L5.41471 22.7573L7.16416 23.7846L8.1664 22.0207L6.42749 21.0327ZM6.42751 21.0326L7.44029 19.308L5.69085 18.2806L4.6886 20.0446L6.42751 21.0326ZM6.9173 21.3202L5.90452 23.0449L7.65988 24.0757L8.65954 22.3024L6.9173 21.3202ZM6.91736 21.3201L8.65959 22.3023L9.62453 20.5906L7.93013 19.5955L6.91736 21.3201ZM6.42751 21.0325L4.68817 20.0452L3.71533 21.7591L5.41473 22.7571L6.42751 21.0325ZM7.05951 19.919L8.79885 20.9063L9.62858 19.4445L8.33142 18.3756L7.05951 19.919ZM4.52938 5.96994L2.79005 4.98266L2.79005 4.98266L4.52938 5.96994ZM7.14045 5.68123C9.7677 2.02739 14.6074 0.928269 18.3719 3.13896L20.3974 -0.31026C14.7553 -3.62358 7.6602 -1.89338 3.89283 3.34606L7.14045 5.68123ZM18.3719 3.13896C21.2551 4.83212 22.8134 8.04878 22.5858 11.3498L26.5763 11.625C26.9003 6.92637 24.6864 2.20842 20.3974 -0.31026L18.3719 3.13896ZM24.8792 17.8862C26.0233 15.8705 26.5727 13.6682 26.5811 11.4951L22.5811 11.4797C22.5753 12.9871 22.1952 14.5116 21.4005 15.9117L24.8792 17.8862ZM8.64522 23.2441C14.5536 25.9233 21.5951 23.6719 24.8792 17.8862L21.4005 15.9117C19.1324 19.9075 14.3113 21.4214 10.2971 19.6012L8.64522 23.2441ZM10.6156 23.4579L11.2105 22.4099L7.73184 20.4354L7.13696 21.4834L10.6156 23.4579ZM10.3788 21.0336L9.88907 20.7461L7.86352 24.1953L8.35323 24.4829L10.3788 21.0336ZM5.16745 34.2066L11.1053 23.7455L7.62667 21.771L1.68878 32.2321L5.16745 34.2066ZM1.92586 34.6566L2.41549 34.944L4.44075 31.4946L3.95112 31.2072L1.92586 34.6566ZM-0.523183 33.2183L1.92569 34.6564L3.9513 31.2073L1.50243 29.7691L-0.523183 33.2183ZM-1.01263 32.9309L-0.523007 33.2184L1.50225 29.769L1.01263 29.4815L-1.01263 32.9309ZM4.19856 19.7579L-1.73933 30.2189L1.73933 32.1935L7.67723 21.7324L4.19856 19.7579ZM7.44027 19.308L6.95067 19.0205L4.92511 22.4698L5.41471 22.7573L7.44027 19.308ZM4.6886 20.0446L4.68858 20.0446L8.1664 22.0207L8.16643 22.0206L4.6886 20.0446ZM7.93008 19.5956L7.44029 19.308L5.41474 22.7572L5.90452 23.0449L7.93008 19.5956ZM5.17512 20.338L5.17506 20.3381L8.65954 22.3024L8.65959 22.3023L5.17512 20.338ZM5.41473 22.7571L5.90458 23.0448L7.93013 19.5955L7.44028 19.3079L5.41473 22.7571ZM5.32018 18.9318L4.68817 20.0452L8.16684 22.0198L8.79885 20.9063L5.32018 18.9318ZM2.79005 4.98266C-0.371194 10.552 1.00828 17.524 5.78761 21.4625L8.33142 18.3756C5.04221 15.6651 4.0731 10.8253 6.26872 6.95722L2.79005 4.98266ZM3.95659 3.26215C3.52853 3.79574 3.13783 4.36996 2.79005 4.98266L6.26872 6.95722C6.51111 6.53018 6.78188 6.13264 7.07669 5.76514L3.95659 3.26215Z" fill="#0D3B66" mask="url(#path-1-inside-1_13_784)"/>
<path d="M7.5 7.5C9.1 5.1 11.1667 3.83333 12 3.5C11 5.33333 8.9 9.2 8.5 10C8.1 10.8 7.66667 14.6667 7.5 16.5C7.5 16.5 6.5 14.4 6.5 14C6.5 13.5 5.5 10.5 7.5 7.5Z" fill="white"/>
</svg>
