<svg width="179" height="64" viewBox="0 0 179 64" fill="none" xmlns="http://www.w3.org/2000/svg">
<mask id="mask0_20_1030" style="mask-type:alpha" maskUnits="userSpaceOnUse" x="0" y="0" width="179" height="64">
<rect width="179" height="64" fill="#D9D9D9"/>
</mask>
<g mask="url(#mask0_20_1030)">
<ellipse cx="107" cy="12.5" rx="8" ry="7.5" fill="#CACACA"/>
<ellipse cx="107" cy="12.5" rx="8" ry="7.5" fill="#CACACA"/>
<ellipse cx="112" cy="5" rx="8" ry="7" fill="#CACACA"/>
<ellipse cx="112" cy="5" rx="8" ry="7" fill="#CACACA"/>
<ellipse cx="117" cy="14.5" rx="8" ry="7.5" fill="#CACACA"/>
<ellipse cx="117" cy="14.5" rx="8" ry="7.5" fill="#CACACA"/>
<ellipse cx="122.5" cy="5" rx="7.5" ry="7" fill="#CACACA"/>
<ellipse cx="122.5" cy="5" rx="7.5" ry="7" fill="#CACACA"/>
<ellipse cx="126" cy="14.5" rx="8" ry="7.5" fill="#CACACA"/>
<ellipse cx="126" cy="14.5" rx="8" ry="7.5" fill="#CACACA"/>
<ellipse cx="134" cy="7.5" rx="8" ry="7.5" fill="#CACACA"/>
<ellipse cx="134" cy="7.5" rx="8" ry="7.5" fill="#CACACA"/>
<ellipse cx="138" cy="14.5" rx="8" ry="7.5" fill="#CACACA"/>
<ellipse cx="138" cy="14.5" rx="8" ry="7.5" fill="#CACACA"/>
<ellipse cx="143.5" cy="5" rx="7.5" ry="7" fill="#CACACA"/>
<ellipse cx="143.5" cy="5" rx="7.5" ry="7" fill="#CACACA"/>
<circle cx="146.5" cy="14.5" r="7.5" fill="#CACACA"/>
<circle cx="146.5" cy="14.5" r="7.5" fill="#CACACA"/>
<ellipse cx="152" cy="7.5" rx="8" ry="7.5" fill="#CACACA"/>
<ellipse cx="152" cy="7.5" rx="8" ry="7.5" fill="#CACACA"/>
<circle cx="106.5" cy="10.5" r="7.5" fill="#CACACA"/>
<ellipse cx="112" cy="3.5" rx="8" ry="7.5" fill="#CACACA"/>
<ellipse cx="116.5" cy="13" rx="7.5" ry="7" fill="#CACACA"/>
<ellipse cx="122" cy="3.5" rx="8" ry="7.5" fill="#CACACA"/>
<ellipse cx="126" cy="13" rx="8" ry="7" fill="#CACACA"/>
<circle cx="133.5" cy="5.5" r="7.5" fill="#CACACA"/>
<ellipse cx="137.5" cy="13" rx="7.5" ry="7" fill="#CACACA"/>
<ellipse cx="143" cy="3.5" rx="8" ry="7.5" fill="#CACACA"/>
<ellipse cx="146.5" cy="13" rx="7.5" ry="7" fill="#CACACA"/>
<ellipse cx="151.5" cy="5.5" rx="8.5" ry="7.5" fill="#CACACA"/>
<ellipse cx="56" cy="14.5" rx="8" ry="7.5" fill="#CACACA"/>
<ellipse cx="56" cy="14.5" rx="8" ry="7.5" fill="#CACACA"/>
<ellipse cx="61" cy="7" rx="8" ry="7" fill="#CACACA"/>
<ellipse cx="61" cy="7" rx="8" ry="7" fill="#CACACA"/>
<ellipse cx="66" cy="16.5" rx="8" ry="7.5" fill="#CACACA"/>
<ellipse cx="66" cy="16.5" rx="8" ry="7.5" fill="#CACACA"/>
<ellipse cx="71.5" cy="7" rx="7.5" ry="7" fill="#CACACA"/>
<ellipse cx="71.5" cy="7" rx="7.5" ry="7" fill="#CACACA"/>
<ellipse cx="75" cy="18.5" rx="8" ry="7.5" fill="#CACACA"/>
<ellipse cx="75" cy="18.5" rx="8" ry="7.5" fill="#CACACA"/>
<ellipse cx="83" cy="9.5" rx="8" ry="7.5" fill="#CACACA"/>
<ellipse cx="83" cy="9.5" rx="8" ry="7.5" fill="#CACACA"/>
<ellipse cx="87" cy="17.5" rx="8" ry="7.5" fill="#CACACA"/>
<ellipse cx="87" cy="17.5" rx="8" ry="7.5" fill="#CACACA"/>
<ellipse cx="92.5" cy="7" rx="7.5" ry="7" fill="#CACACA"/>
<ellipse cx="92.5" cy="7" rx="7.5" ry="7" fill="#CACACA"/>
<circle cx="96.5" cy="17.5" r="7.5" fill="#CACACA"/>
<circle cx="96.5" cy="17.5" r="7.5" fill="#CACACA"/>
<ellipse cx="101" cy="9.5" rx="8" ry="7.5" fill="#CACACA"/>
<ellipse cx="101" cy="9.5" rx="8" ry="7.5" fill="#CACACA"/>
<circle cx="55.5" cy="12.5" r="7.5" fill="#CACACA"/>
<ellipse cx="61" cy="5.5" rx="8" ry="7.5" fill="#CACACA"/>
<ellipse cx="65.5" cy="15" rx="7.5" ry="7" fill="#CACACA"/>
<ellipse cx="71" cy="5.5" rx="8" ry="7.5" fill="#CACACA"/>
<ellipse cx="75" cy="18" rx="8" ry="7" fill="#CACACA"/>
<circle cx="82.5" cy="7.5" r="7.5" fill="#CACACA"/>
<ellipse cx="86.5" cy="16" rx="7.5" ry="7" fill="#CACACA"/>
<ellipse cx="92" cy="5.5" rx="8" ry="7.5" fill="#CACACA"/>
<ellipse cx="96.5" cy="16" rx="7.5" ry="7" fill="#CACACA"/>
<ellipse cx="100.5" cy="7.5" rx="8.5" ry="7.5" fill="#CACACA"/>
<path d="M179 38.5732L160.133 22.0001L132.075 38.5732L98.211 31.9439L63.3799 45.8653L30 38.5732V81.0001H179V38.5732Z" fill="#535353"/>
<path d="M0 50.326L22 26.0001L56.3734 50.326L97.0552 44.5956L138.899 56.6293L179 50.326V87.0001H0V50.326Z" fill="#AFAFAF"/>
<path fill-rule="evenodd" clip-rule="evenodd" d="M160.156 21.6497L168.844 29.2692H147.235L160.156 21.6497Z" fill="#E7E7E7"/>
<path d="M12.8608 36.0071L22 26L32 33L12.8608 36.0071Z" fill="white"/>
</g>
</svg>
