<svg width="82" height="8" viewBox="0 0 82 8" fill="none" xmlns="http://www.w3.org/2000/svg">
<path d="M5.99 0.13C6.06333 0.13 6.12 0.14 6.16 0.16C6.2 0.18 6.22667 0.213333 6.24 0.26C6.26 0.3 6.27 0.36 6.27 0.44C6.27 0.513333 6.26 0.573333 6.24 0.62C6.22 0.66 6.18667 0.69 6.14 0.71C6.1 0.723333 6.04333 0.73 5.97 0.73H3.67V6.81C3.67 6.88333 3.66 6.94333 3.64 6.99C3.62 7.03 3.58667 7.06 3.54 7.08C3.5 7.1 3.44333 7.11 3.37 7.11C3.29667 7.11 3.23667 7.1 3.19 7.08C3.15 7.06 3.12 7.02667 3.1 6.98C3.08667 6.93333 3.08 6.87333 3.08 6.8V0.73H0.75C0.676667 0.73 0.616667 0.723333 0.57 0.71C0.53 0.69 0.5 0.66 0.48 0.62C0.46 0.573333 0.45 0.513333 0.45 0.44C0.45 0.36 0.456667 0.3 0.47 0.26C0.49 0.213333 0.52 0.18 0.56 0.16C0.606667 0.14 0.663333 0.13 0.73 0.13H5.99ZM12.5288 7.11C12.4554 7.11 12.3954 7.1 12.3488 7.08C12.3088 7.06 12.2788 7.02667 12.2588 6.98C12.2454 6.93333 12.2388 6.87333 12.2388 6.8V0.43C12.2388 0.356666 12.2488 0.3 12.2688 0.26C12.2888 0.213333 12.3188 0.18 12.3588 0.16C12.4054 0.14 12.4654 0.13 12.5388 0.13C12.6121 0.13 12.6688 0.14 12.7088 0.16C12.7554 0.18 12.7854 0.213333 12.7988 0.26C12.8188 0.3 12.8288 0.36 12.8288 0.44V6.81C12.8288 6.88333 12.8188 6.94333 12.7988 6.99C12.7788 7.03 12.7454 7.06 12.6988 7.08C12.6588 7.1 12.6021 7.11 12.5288 7.11ZM7.88875 7.11C7.81542 7.11 7.75542 7.1 7.70875 7.08C7.66875 7.06 7.63875 7.02667 7.61875 6.98C7.60542 6.93333 7.59875 6.87333 7.59875 6.8V0.43C7.59875 0.356666 7.60875 0.3 7.62875 0.26C7.64875 0.213333 7.67875 0.18 7.71875 0.16C7.76542 0.14 7.82542 0.13 7.89875 0.13C7.97208 0.13 8.02875 0.14 8.06875 0.16C8.11542 0.18 8.14542 0.213333 8.15875 0.26C8.17875 0.3 8.18875 0.36 8.18875 0.44V6.81C8.18875 6.88333 8.17875 6.94333 8.15875 6.99C8.13875 7.03 8.10542 7.06 8.05875 7.08C8.01875 7.1 7.96208 7.11 7.88875 7.11ZM7.69875 3.8V3.2H12.3988L12.3888 3.8H7.69875ZM14.8909 7.11C14.8176 7.11 14.7576 7.1 14.7109 7.08C14.6709 7.06 14.6409 7.02667 14.6209 6.98C14.6076 6.93333 14.6009 6.87333 14.6009 6.8V0.43C14.6009 0.316666 14.6243 0.24 14.6709 0.2C14.7176 0.153333 14.8009 0.13 14.9209 0.13H19.0609C19.1343 0.13 19.1909 0.14 19.2309 0.16C19.2776 0.18 19.3076 0.213333 19.3209 0.26C19.3409 0.3 19.3509 0.36 19.3509 0.44C19.3509 0.513333 19.3409 0.573333 19.3209 0.62C19.3009 0.66 19.2676 0.69 19.2209 0.71C19.1809 0.723333 19.1243 0.73 19.0509 0.73H15.1909V3.2H17.9009C17.9743 3.2 18.0309 3.21 18.0709 3.23C18.1176 3.25 18.1509 3.28333 18.1709 3.33C18.1909 3.37 18.2009 3.43 18.2009 3.51C18.2009 3.58333 18.1909 3.64333 18.1709 3.69C18.1509 3.73 18.1176 3.76 18.0709 3.78C18.0243 3.79333 17.9609 3.8 17.8809 3.8H15.1909V6.51H19.0609C19.1343 6.51 19.1909 6.52 19.2309 6.54C19.2776 6.56 19.3076 6.59333 19.3209 6.64C19.3409 6.68 19.3509 6.73667 19.3509 6.81C19.3509 6.88333 19.3409 6.94333 19.3209 6.99C19.3009 7.03 19.2676 7.06 19.2209 7.08C19.1809 7.1 19.1243 7.11 19.0509 7.11H14.8909ZM26.5774 7.1C26.0508 7.1 25.5808 7.02 25.1674 6.86C24.7541 6.69333 24.4041 6.45667 24.1174 6.15C23.8308 5.83667 23.6108 5.46 23.4574 5.02C23.3108 4.57333 23.2374 4.06667 23.2374 3.5C23.2374 2.97333 23.3141 2.5 23.4674 2.08C23.6274 1.66 23.8541 1.30333 24.1474 1.01C24.4474 0.716666 24.8108 0.49 25.2374 0.329999C25.6641 0.163333 26.1474 0.0766664 26.6874 0.0699998C26.8941 0.0699998 27.1008 0.0899998 27.3074 0.13C27.5141 0.163333 27.7108 0.216666 27.8974 0.29C28.0908 0.356667 28.2641 0.44 28.4174 0.54C28.5241 0.606666 28.6108 0.673333 28.6774 0.74C28.7441 0.8 28.7808 0.856666 28.7874 0.91C28.8008 0.943333 28.8008 0.983333 28.7874 1.03C28.7741 1.07667 28.7541 1.12 28.7274 1.16C28.7008 1.2 28.6674 1.23333 28.6274 1.26C28.5874 1.28 28.5441 1.29 28.4974 1.29C28.4841 1.29 28.4474 1.27333 28.3874 1.24C28.3274 1.20667 28.2508 1.16 28.1574 1.1C28.0241 1.01333 27.8741 0.94 27.7074 0.88C27.5474 0.813333 27.3774 0.763333 27.1974 0.73C27.0174 0.696666 26.8341 0.68 26.6474 0.68C26.0674 0.68 25.5674 0.793333 25.1474 1.02C24.7274 1.24667 24.4041 1.57333 24.1774 2C23.9574 2.42667 23.8441 2.94 23.8374 3.54C23.8441 4.16 23.9574 4.69 24.1774 5.13C24.4041 5.57 24.7241 5.91 25.1374 6.15C25.5508 6.38333 26.0441 6.5 26.6174 6.5C26.8041 6.5 26.9941 6.48333 27.1874 6.45C27.3808 6.41667 27.5708 6.37 27.7574 6.31C27.9441 6.25 28.1208 6.17667 28.2874 6.09V3.8H26.1974C26.1241 3.8 26.0641 3.79333 26.0174 3.78C25.9708 3.76 25.9374 3.73 25.9174 3.69C25.8974 3.64333 25.8874 3.58333 25.8874 3.51C25.8874 3.43 25.8974 3.37 25.9174 3.33C25.9374 3.28333 25.9674 3.25 26.0074 3.23C26.0541 3.21 26.1141 3.2 26.1874 3.2H28.5074C28.5941 3.2 28.6641 3.21667 28.7174 3.25C28.7708 3.27667 28.8108 3.31667 28.8374 3.37C28.8708 3.42333 28.8874 3.49333 28.8874 3.58V6.18C28.8874 6.26 28.8374 6.34333 28.7374 6.43C28.6374 6.51667 28.4908 6.60667 28.2974 6.7C28.1508 6.77333 27.9841 6.84 27.7974 6.9C27.6108 6.96 27.4141 7.00667 27.2074 7.04C27.0008 7.08 26.7908 7.1 26.5774 7.1ZM36.4584 6.68C36.4918 6.74 36.5084 6.79667 36.5084 6.85C36.5151 6.89667 36.5018 6.94 36.4684 6.98C36.4418 7.01333 36.3951 7.04667 36.3284 7.08C36.2218 7.12667 36.1351 7.13 36.0684 7.09C36.0084 7.05667 35.9551 6.99333 35.9084 6.9L33.1484 0.96L30.3984 6.88C30.3518 6.98 30.2951 7.04667 30.2284 7.08C30.1684 7.11333 30.0818 7.11 29.9684 7.07C29.9018 7.04333 29.8551 7.01 29.8284 6.97C29.8018 6.92333 29.7951 6.86667 29.8084 6.8C29.8218 6.73333 29.8484 6.65667 29.8884 6.57L32.8784 0.31C32.9051 0.256666 32.9418 0.213333 32.9884 0.18C33.0418 0.146666 33.0984 0.13 33.1584 0.13C33.1984 0.13 33.2351 0.136666 33.2684 0.149999C33.3018 0.163333 33.3318 0.183333 33.3584 0.21C33.3851 0.236667 33.4084 0.273333 33.4284 0.32L36.4584 6.68ZM31.1684 4.93L31.3684 4.43H34.9484L35.1384 4.93H31.1684ZM37.8402 7.11C37.7668 7.11 37.7068 7.1 37.6602 7.08C37.6202 7.06 37.5902 7.02667 37.5702 6.98C37.5568 6.93333 37.5502 6.87333 37.5502 6.8V0.419999C37.5502 0.353333 37.5602 0.3 37.5802 0.26C37.6068 0.22 37.6402 0.19 37.6802 0.17C37.7268 0.143333 37.7835 0.13 37.8502 0.13H40.1202C40.4735 0.13 40.7802 0.176666 41.0402 0.27C41.3068 0.363333 41.5302 0.5 41.7102 0.68C41.8902 0.86 42.0235 1.08667 42.1102 1.36C42.2035 1.62667 42.2502 1.93667 42.2502 2.29C42.2502 2.49667 42.2168 2.72333 42.1502 2.97C42.0835 3.21667 41.9802 3.45 41.8402 3.67C41.7002 3.89 41.5135 4.07 41.2802 4.21C41.0535 4.35 40.7735 4.42 40.4402 4.42H38.1402V6.81C38.1402 6.88333 38.1302 6.94333 38.1102 6.99C38.0902 7.03 38.0568 7.06 38.0102 7.08C37.9702 7.1 37.9135 7.11 37.8402 7.11ZM42.1602 7.04C42.0735 7.08667 41.9935 7.09667 41.9202 7.07C41.8535 7.04333 41.7968 6.98667 41.7502 6.9L40.2302 4.32L40.8502 4.21L42.2802 6.59C42.3268 6.66333 42.3535 6.72667 42.3602 6.78C42.3668 6.83333 42.3535 6.88 42.3202 6.92C42.2868 6.96 42.2335 7 42.1602 7.04ZM38.1402 3.85H40.4202C40.6002 3.85 40.7635 3.81667 40.9102 3.75C41.0635 3.68333 41.1935 3.58333 41.3002 3.45C41.4135 3.31667 41.5002 3.15333 41.5602 2.96C41.6268 2.76667 41.6602 2.54 41.6602 2.28C41.6602 1.94 41.6002 1.65667 41.4802 1.43C41.3668 1.19667 41.1935 1.02333 40.9602 0.91C40.7335 0.79 40.4468 0.73 40.1002 0.73H38.1402V3.85ZM44.0288 7.11C43.9688 7.11 43.9154 7.09667 43.8688 7.07C43.8288 7.04333 43.7954 7.00667 43.7688 6.96C43.7488 6.91333 43.7388 6.86 43.7388 6.8V0.419999C43.7388 0.353333 43.7488 0.3 43.7688 0.26C43.7954 0.213333 43.8321 0.18 43.8788 0.16C43.9254 0.133333 43.9788 0.12 44.0388 0.12L46.0888 0.13C46.5888 0.13 47.0354 0.21 47.4288 0.37C47.8288 0.523333 48.1654 0.75 48.4388 1.05C48.7188 1.34333 48.9288 1.70333 49.0688 2.13C49.2154 2.55667 49.2888 3.04 49.2888 3.58C49.2888 4.13333 49.2154 4.63 49.0688 5.07C48.9221 5.50333 48.7088 5.87333 48.4288 6.18C48.1554 6.48 47.8188 6.71 47.4188 6.87C47.0188 7.03 46.5654 7.11 46.0588 7.11H44.0288ZM44.3288 6.51H46.0888C46.6354 6.51 47.1021 6.39667 47.4888 6.17C47.8754 5.93667 48.1721 5.60667 48.3788 5.18C48.5854 4.74667 48.6888 4.23 48.6888 3.63C48.6888 3.02333 48.5854 2.50333 48.3788 2.07C48.1721 1.63667 47.8721 1.30667 47.4788 1.08C47.0921 0.846666 46.6254 0.73 46.0788 0.73H44.3288V6.51ZM51.1898 7.11C51.1164 7.11 51.0564 7.1 51.0098 7.08C50.9698 7.06 50.9398 7.02667 50.9198 6.98C50.9064 6.93333 50.8998 6.87333 50.8998 6.8V0.43C50.8998 0.316666 50.9231 0.24 50.9698 0.2C51.0164 0.153333 51.0998 0.13 51.2198 0.13H55.3598C55.4331 0.13 55.4898 0.14 55.5298 0.16C55.5764 0.18 55.6064 0.213333 55.6198 0.26C55.6398 0.3 55.6498 0.36 55.6498 0.44C55.6498 0.513333 55.6398 0.573333 55.6198 0.62C55.5998 0.66 55.5664 0.69 55.5198 0.71C55.4798 0.723333 55.4231 0.73 55.3498 0.73H51.4898V3.2H54.1998C54.2731 3.2 54.3298 3.21 54.3698 3.23C54.4164 3.25 54.4498 3.28333 54.4698 3.33C54.4898 3.37 54.4998 3.43 54.4998 3.51C54.4998 3.58333 54.4898 3.64333 54.4698 3.69C54.4498 3.73 54.4164 3.76 54.3698 3.78C54.3231 3.79333 54.2598 3.8 54.1798 3.8H51.4898V6.51H55.3598C55.4331 6.51 55.4898 6.52 55.5298 6.54C55.5764 6.56 55.6064 6.59333 55.6198 6.64C55.6398 6.68 55.6498 6.73667 55.6498 6.81C55.6498 6.88333 55.6398 6.94333 55.6198 6.99C55.5998 7.03 55.5664 7.06 55.5198 7.08C55.4798 7.1 55.4231 7.11 55.3498 7.11H51.1898ZM57.3586 7.1C57.2986 7.1 57.2486 7.08667 57.2086 7.06C57.1686 7.04 57.1353 7.00667 57.1086 6.96C57.0886 6.91333 57.0786 6.85667 57.0786 6.79V0.39C57.0786 0.33 57.0919 0.283333 57.1186 0.25C57.1453 0.21 57.1819 0.18 57.2286 0.16C57.2819 0.14 57.3419 0.13 57.4086 0.13C57.5086 0.13 57.5819 0.136666 57.6286 0.149999C57.6753 0.156666 57.7219 0.186666 57.7686 0.239999L61.9486 6.21V0.39C61.9486 0.33 61.9586 0.283333 61.9786 0.25C62.0053 0.21 62.0419 0.18 62.0886 0.16C62.1353 0.14 62.1919 0.13 62.2586 0.13C62.3186 0.13 62.3686 0.143333 62.4086 0.17C62.4553 0.19 62.4886 0.223333 62.5086 0.27C62.5286 0.316666 62.5386 0.373333 62.5386 0.44V6.8C62.5386 6.86667 62.5219 6.92333 62.4886 6.97C62.4619 7.01 62.4219 7.04 62.3686 7.06C62.3153 7.08667 62.2553 7.1 62.1886 7.1C62.1219 7.1 62.0619 7.09 62.0086 7.07C61.9553 7.05 61.9019 7.00667 61.8486 6.94L57.6686 1.04V6.8C57.6686 6.86667 57.6553 6.92333 57.6286 6.97C57.6086 7.01 57.5753 7.04 57.5286 7.06C57.4819 7.08667 57.4253 7.1 57.3586 7.1ZM67.1435 7.11C67.0702 7.11 67.0102 7.1 66.9635 7.08C66.9235 7.06 66.8935 7.02667 66.8735 6.98C66.8602 6.93333 66.8535 6.87333 66.8535 6.8V0.43C66.8535 0.356666 66.8635 0.3 66.8835 0.26C66.9035 0.213333 66.9335 0.18 66.9735 0.16C67.0202 0.14 67.0802 0.13 67.1535 0.13C67.2268 0.13 67.2835 0.14 67.3235 0.16C67.3702 0.18 67.4002 0.213333 67.4135 0.26C67.4335 0.3 67.4435 0.36 67.4435 0.44V6.81C67.4435 6.88333 67.4335 6.94333 67.4135 6.99C67.3935 7.03 67.3602 7.06 67.3135 7.08C67.2735 7.1 67.2168 7.11 67.1435 7.11ZM69.2434 7.1C69.1834 7.1 69.1334 7.08667 69.0934 7.06C69.0534 7.04 69.02 7.00667 68.9934 6.96C68.9734 6.91333 68.9634 6.85667 68.9634 6.79V0.39C68.9634 0.33 68.9767 0.283333 69.0034 0.25C69.03 0.21 69.0667 0.18 69.1134 0.16C69.1667 0.14 69.2267 0.13 69.2934 0.13C69.3934 0.13 69.4667 0.136666 69.5134 0.149999C69.56 0.156666 69.6067 0.186666 69.6534 0.239999L73.8334 6.21V0.39C73.8334 0.33 73.8434 0.283333 73.8634 0.25C73.89 0.21 73.9267 0.18 73.9734 0.16C74.02 0.14 74.0767 0.13 74.1434 0.13C74.2034 0.13 74.2534 0.143333 74.2934 0.17C74.34 0.19 74.3734 0.223333 74.3934 0.27C74.4134 0.316666 74.4234 0.373333 74.4234 0.44V6.8C74.4234 6.86667 74.4067 6.92333 74.3734 6.97C74.3467 7.01 74.3067 7.04 74.2534 7.06C74.2 7.08667 74.14 7.1 74.0734 7.1C74.0067 7.1 73.9467 7.09 73.8934 7.07C73.84 7.05 73.7867 7.00667 73.7334 6.94L69.5534 1.04V6.8C69.5534 6.86667 69.54 6.92333 69.5134 6.97C69.4934 7.01 69.46 7.04 69.4134 7.06C69.3667 7.08667 69.31 7.1 69.2434 7.1ZM79.4606 7.1C79.0673 7.1 78.6973 7.04333 78.3506 6.93C78.004 6.81667 77.6873 6.65667 77.4006 6.45C77.114 6.23667 76.8673 5.98333 76.6606 5.69C76.454 5.39 76.294 5.06 76.1806 4.7C76.0673 4.33333 76.0106 3.94333 76.0106 3.53C76.0106 3.12333 76.0673 2.74333 76.1806 2.39C76.294 2.03667 76.454 1.72 76.6606 1.44C76.8673 1.16 77.114 0.92 77.4006 0.72C77.6873 0.513333 78.004 0.356666 78.3506 0.25C78.6973 0.136666 79.0673 0.0766664 79.4606 0.0699998C79.794 0.0699998 80.0773 0.103333 80.3106 0.17C80.544 0.23 80.734 0.296666 80.8806 0.37C81.0273 0.443333 81.1306 0.5 81.1906 0.54C81.2706 0.586666 81.3473 0.643333 81.4206 0.71C81.5006 0.77 81.5473 0.836667 81.5606 0.91C81.574 0.976666 81.5706 1.02667 81.5506 1.06C81.5373 1.09333 81.5206 1.12667 81.5006 1.16C81.474 1.20667 81.4406 1.24 81.4006 1.26C81.3606 1.28 81.3173 1.29 81.2706 1.29C81.2106 1.29 81.1573 1.27 81.1106 1.23C81.064 1.19 81.004 1.14667 80.9306 1.1C80.8906 1.07333 80.804 1.02667 80.6706 0.96C80.5373 0.893333 80.364 0.83 80.1506 0.77C79.944 0.71 79.7006 0.68 79.4206 0.68C79.0206 0.68 78.6473 0.75 78.3006 0.89C77.9606 1.03 77.664 1.23 77.4106 1.49C77.1573 1.74333 76.9606 2.04667 76.8206 2.4C76.6806 2.75333 76.6106 3.14667 76.6106 3.58C76.6106 4.01333 76.6806 4.41 76.8206 4.77C76.9606 5.12333 77.1573 5.43 77.4106 5.69C77.664 5.94333 77.9606 6.14 78.3006 6.28C78.6473 6.42 79.0206 6.49 79.4206 6.49C79.7006 6.49 79.944 6.46 80.1506 6.4C80.364 6.34 80.5373 6.27667 80.6706 6.21C80.804 6.13667 80.8906 6.09 80.9306 6.07C81.004 6.03 81.064 5.99 81.1106 5.95C81.1573 5.91 81.2106 5.89 81.2706 5.89C81.3173 5.89 81.3606 5.9 81.4006 5.92C81.4406 5.93333 81.474 5.96333 81.5006 6.01C81.5206 6.03667 81.5373 6.07 81.5506 6.11C81.5706 6.15 81.574 6.20333 81.5606 6.27C81.5473 6.34333 81.5006 6.41333 81.4206 6.48C81.3473 6.54 81.2706 6.59333 81.1906 6.64C81.1306 6.67333 81.024 6.73 80.8706 6.81C80.724 6.88333 80.534 6.95 80.3006 7.01C80.0673 7.07 79.7873 7.1 79.4606 7.1Z" fill="black"/>
</svg>
