<svg xmlns="http://www.w3.org/2000/svg" xmlns:xlink="http://www.w3.org/1999/xlink" width="500" zoomAndPan="magnify" viewBox="0 0 375 374.999991" height="500" preserveAspectRatio="xMidYMid meet" version="1.0"><defs><g/></defs><g fill="#000000" fill-opacity="1"><g transform="translate(95.718653, 108.549967)"><g><path d="M 2.308594 -64.367188 C 7.390625 -69.527344 17.09375 -75.222656 24.023438 -75.761719 L 24.023438 0 L 35.1875 0 L 35.1875 -75.761719 C 42.117188 -75.222656 51.816406 -69.527344 56.898438 -64.367188 L 56.898438 -76.996094 L 2.308594 -76.996094 Z M 2.308594 -64.367188 "/></g></g></g><g fill="#000000" fill-opacity="1"><g transform="translate(154.925711, 108.549967)"><g><path d="M 5.390625 0 L 16.554688 0 L 16.554688 -37.265625 L 48.738281 -37.265625 L 48.738281 0 L 59.902344 0 L 59.902344 -76.996094 L 48.738281 -76.996094 L 48.738281 -38.496094 L 16.554688 -38.496094 L 16.554688 -76.996094 L 5.390625 -76.996094 Z M 5.390625 0 "/></g></g></g><g fill="#000000" fill-opacity="1"><g transform="translate(220.215154, 108.549967)"><g><path d="M 3.078125 -25.871094 C 3.078125 -6.238281 20.171875 0.769531 38.726562 0.769531 C 43.964844 0.769531 47.890625 0 51.972656 -1.925781 L 56.589844 -15.320312 C 51.355469 -10.933594 44.886719 -10.394531 38.421875 -10.394531 C 21.171875 -10.394531 4.464844 -13.9375 4.464844 -25.253906 C 4.464844 -29.257812 7.46875 -31.644531 14.398438 -31.644531 C 24.484375 -31.644531 32.261719 -24.253906 43.65625 -24.636719 C 49.046875 -24.792969 53.898438 -28.410156 53.898438 -34.1875 C 53.898438 -49.507812 13.628906 -44.195312 13.628906 -58.824219 C 13.628906 -64.214844 18.402344 -66.910156 29.644531 -66.910156 C 39.5 -66.910156 49.738281 -64.289062 54.203125 -61.058594 L 57.359375 -72.605469 C 52.585938 -76.457031 39.34375 -77.765625 31.414062 -77.765625 C 9.238281 -77.765625 4.925781 -67.292969 4.925781 -62.597656 C 4.925781 -51.203125 16.015625 -49.121094 26.871094 -46.503906 C 35.109375 -44.503906 48.277344 -42.117188 48.277344 -37.574219 C 48.277344 -35.800781 46.660156 -35.109375 44.886719 -35.109375 C 37.726562 -35.109375 31.875 -40.5 21.636719 -40.5 C 11.164062 -40.5 3.078125 -35.648438 3.078125 -25.871094 Z M 3.078125 -25.871094 "/></g></g></g><g fill="#000000" fill-opacity="1"><g transform="translate(93.492091, 215.79996)"><g><path d="M 36.035156 0.769531 C 48.121094 0.769531 52.820312 -1.464844 57.667969 -5.773438 L 57.667969 -41.347656 L 46.351562 -41.347656 L 46.351562 -3.078125 C 46.351562 -1.539062 43.425781 -0.691406 41.5 -0.691406 C 28.488281 -0.691406 12.242188 -26.871094 12.242188 -49.277344 C 12.242188 -64.058594 15.246094 -72.992188 25.792969 -72.992188 C 34.492188 -72.992188 43.269531 -68.140625 49.355469 -60.980469 L 56.898438 -69.988281 C 54.050781 -74.378906 45.8125 -77.765625 37.882812 -77.765625 C 16.015625 -77.765625 3.078125 -61.828125 3.078125 -39.730469 C 3.078125 -18.402344 14.011719 0.769531 36.035156 0.769531 Z M 36.035156 0.769531 "/></g></g></g><g fill="#000000" fill-opacity="1"><g transform="translate(156.548758, 215.79996)"><g><path d="M 18.324219 0 C 17.476562 -3.542969 16.9375 -15.167969 17.324219 -27.949219 L 43.039062 -27.949219 C 45.503906 -19.480469 48.121094 -10.625 51.355469 0 L 63.136719 0 C 55.207031 -26.253906 50.433594 -41.808594 42.65625 -67.449219 C 41.039062 -72.761719 37.957031 -77.765625 32.339844 -77.765625 C 26.71875 -77.765625 23.636719 -72.761719 22.019531 -67.449219 C 14.242188 -41.808594 9.546875 -26.253906 1.539062 0 Z M 17.402344 -29.105469 C 18.09375 -48.582031 20.867188 -70.296875 27.796875 -70.296875 C 29.488281 -70.296875 30.335938 -69.140625 30.875 -67.449219 C 35.570312 -52.664062 39.035156 -41.191406 42.65625 -29.105469 Z M 17.402344 -29.105469 "/></g></g></g><g fill="#000000" fill-opacity="1"><g transform="translate(221.222269, 215.79996)"><g><path d="M 16.554688 0 L 16.554688 -75.839844 L 33.03125 -75.839844 C 42.117188 -75.839844 45.734375 -70.296875 45.734375 -63.058594 C 45.734375 -42.886719 22.484375 -41.960938 22.484375 -34.492188 C 22.484375 -29.566406 32.339844 -14.320312 38.804688 -5.851562 C 42.808594 -0.617188 43.039062 0 47.582031 0 L 60.285156 0 L 60.285156 -0.460938 C 54.742188 -0.460938 31.414062 -34.417969 31.414062 -39.730469 C 31.414062 -44.425781 56.898438 -45.195312 56.898438 -63.75 C 56.898438 -70.066406 52.820312 -76.996094 44.425781 -76.996094 L 5.390625 -76.996094 L 5.390625 0 Z M 16.554688 0 "/></g></g></g><g fill="#000000" fill-opacity="1"><g transform="translate(93.714747, 323.049952)"><g><path d="M 24.175781 0 C 52.28125 0 60.363281 -19.863281 60.363281 -38.496094 C 60.363281 -57.128906 52.28125 -76.996094 24.175781 -76.996094 L 5.390625 -76.996094 L 5.390625 0 Z M 21.789062 -75.839844 C 45.195312 -75.839844 49.199219 -53.742188 49.199219 -38.496094 C 49.199219 -23.253906 45.195312 -1.15625 21.789062 -1.15625 L 16.554688 -1.15625 L 16.554688 -75.839844 Z M 21.789062 -75.839844 "/></g></g></g><g fill="#000000" fill-opacity="1"><g transform="translate(157.156382, 323.049952)"><g><path d="M 3.078125 -25.871094 C 3.078125 -6.238281 20.171875 0.769531 38.726562 0.769531 C 43.964844 0.769531 47.890625 0 51.972656 -1.925781 L 56.589844 -15.320312 C 51.355469 -10.933594 44.886719 -10.394531 38.421875 -10.394531 C 21.171875 -10.394531 4.464844 -13.9375 4.464844 -25.253906 C 4.464844 -29.257812 7.46875 -31.644531 14.398438 -31.644531 C 24.484375 -31.644531 32.261719 -24.253906 43.65625 -24.636719 C 49.046875 -24.792969 53.898438 -28.410156 53.898438 -34.1875 C 53.898438 -49.507812 13.628906 -44.195312 13.628906 -58.824219 C 13.628906 -64.214844 18.402344 -66.910156 29.644531 -66.910156 C 39.5 -66.910156 49.738281 -64.289062 54.203125 -61.058594 L 57.359375 -72.605469 C 52.585938 -76.457031 39.34375 -77.765625 31.414062 -77.765625 C 9.238281 -77.765625 4.925781 -67.292969 4.925781 -62.597656 C 4.925781 -51.203125 16.015625 -49.121094 26.871094 -46.503906 C 35.109375 -44.503906 48.277344 -42.117188 48.277344 -37.574219 C 48.277344 -35.800781 46.660156 -35.109375 44.886719 -35.109375 C 37.726562 -35.109375 31.875 -40.5 21.636719 -40.5 C 11.164062 -40.5 3.078125 -35.648438 3.078125 -25.871094 Z M 3.078125 -25.871094 "/></g></g></g><g fill="#000000" fill-opacity="1"><g transform="translate(216.209448, 323.049952)"><g><path d="M 5.390625 0 L 21.40625 0 C 11.625 -17.554688 6.777344 -37.882812 6.777344 -67.292969 C 6.777344 -67.292969 8.699219 -68.679688 13.011719 -60.441406 C 15.246094 -56.128906 19.632812 -46.96875 27.023438 -32.875 C 36.496094 -14.859375 46.734375 0.769531 56.207031 0.769531 C 57.285156 0.769531 58.824219 0.460938 59.671875 0 L 59.671875 -76.996094 L 43.65625 -76.996094 C 53.433594 -59.441406 58.285156 -39.113281 58.285156 -10.316406 C 58.285156 -10.316406 56.898438 -8.699219 52.742188 -13.167969 C 49.429688 -16.785156 44.347656 -24.253906 36.648438 -38.496094 C 22.175781 -65.292969 20.328125 -77.765625 8.855469 -77.765625 C 7.777344 -77.765625 6.238281 -77.457031 5.390625 -76.996094 Z M 5.390625 0 "/></g></g></g></svg>