<svg xmlns="http://www.w3.org/2000/svg" xmlns:xlink="http://www.w3.org/1999/xlink" width="500" zoomAndPan="magnify" viewBox="0 0 375 374.999991" height="500" preserveAspectRatio="xMidYMid meet" version="1.0"><defs><g/></defs><g fill="#000000" fill-opacity="1"><g transform="translate(32.55302, 200.698496)"><g><path d="M 1.214844 -33.8125 C 3.882812 -36.523438 8.980469 -39.515625 12.621094 -39.800781 L 12.621094 0 L 18.484375 0 L 18.484375 -39.800781 C 22.125 -39.515625 27.21875 -36.523438 29.890625 -33.8125 L 29.890625 -40.445312 L 1.214844 -40.445312 Z M 1.214844 -33.8125 "/></g></g></g><g fill="#000000" fill-opacity="1"><g transform="translate(63.655284, 200.698496)"><g><path d="M 2.832031 0 L 8.695312 0 L 8.695312 -19.574219 L 25.601562 -19.574219 L 25.601562 0 L 31.46875 0 L 31.46875 -40.445312 L 25.601562 -40.445312 L 25.601562 -20.222656 L 8.695312 -20.222656 L 8.695312 -40.445312 L 2.832031 -40.445312 Z M 2.832031 0 "/></g></g></g><g fill="#000000" fill-opacity="1"><g transform="translate(97.952707, 200.698496)"><g><path d="M 1.617188 -13.589844 C 1.617188 -3.277344 10.597656 0.40625 20.34375 0.40625 C 23.09375 0.40625 25.15625 0 27.300781 -1.011719 L 29.726562 -8.050781 C 26.976562 -5.742188 23.582031 -5.460938 20.183594 -5.460938 C 11.121094 -5.460938 2.347656 -7.320312 2.347656 -13.265625 C 2.347656 -15.371094 3.921875 -16.625 7.5625 -16.625 C 12.863281 -16.625 16.945312 -12.742188 22.933594 -12.941406 C 25.765625 -13.023438 28.3125 -14.925781 28.3125 -17.957031 C 28.3125 -26.007812 7.160156 -23.214844 7.160156 -30.902344 C 7.160156 -33.730469 9.667969 -35.148438 15.570312 -35.148438 C 20.75 -35.148438 26.128906 -33.773438 28.472656 -32.074219 L 30.132812 -38.140625 C 27.625 -40.164062 20.667969 -40.851562 16.503906 -40.851562 C 4.855469 -40.851562 2.589844 -35.351562 2.589844 -32.882812 C 2.589844 -26.898438 8.414062 -25.804688 14.117188 -24.429688 C 18.445312 -23.378906 25.359375 -22.125 25.359375 -19.738281 C 25.359375 -18.808594 24.511719 -18.445312 23.582031 -18.445312 C 19.820312 -18.445312 16.746094 -21.273438 11.367188 -21.273438 C 5.863281 -21.273438 1.617188 -18.726562 1.617188 -13.589844 Z M 1.617188 -13.589844 "/></g></g></g><g fill="#000000" fill-opacity="1"><g transform="translate(128.974078, 200.698496)"><g/></g></g><g fill="#000000" fill-opacity="1"><g transform="translate(145.152107, 200.698496)"><g><path d="M 18.929688 0.40625 C 25.277344 0.40625 27.746094 -0.769531 30.292969 -3.035156 L 30.292969 -21.71875 L 24.347656 -21.71875 L 24.347656 -1.617188 C 24.347656 -0.808594 22.8125 -0.363281 21.800781 -0.363281 C 14.964844 -0.363281 6.429688 -14.117188 6.429688 -25.886719 C 6.429688 -33.652344 8.007812 -38.34375 13.550781 -38.34375 C 18.121094 -38.34375 22.730469 -35.796875 25.925781 -32.035156 L 29.890625 -36.765625 C 28.394531 -39.070312 24.066406 -40.851562 19.898438 -40.851562 C 8.414062 -40.851562 1.617188 -32.480469 1.617188 -20.871094 C 1.617188 -9.667969 7.359375 0.40625 18.929688 0.40625 Z M 18.929688 0.40625 "/></g></g></g><g fill="#000000" fill-opacity="1"><g transform="translate(178.276623, 200.698496)"><g><path d="M 9.625 0 C 9.179688 -1.859375 8.898438 -7.96875 9.101562 -14.683594 L 22.609375 -14.683594 C 23.902344 -10.234375 25.277344 -5.582031 26.976562 0 L 33.167969 0 C 29 -13.792969 26.492188 -21.960938 22.40625 -35.429688 C 21.558594 -38.222656 19.941406 -40.851562 16.988281 -40.851562 C 14.035156 -40.851562 12.417969 -38.222656 11.566406 -35.429688 C 7.484375 -21.960938 5.015625 -13.792969 0.808594 0 Z M 9.140625 -15.289062 C 9.503906 -25.523438 10.960938 -36.925781 14.601562 -36.925781 C 15.492188 -36.925781 15.9375 -36.320312 16.21875 -35.429688 C 18.6875 -27.664062 20.507812 -21.640625 22.40625 -15.289062 Z M 9.140625 -15.289062 "/></g></g></g><g fill="#000000" fill-opacity="1"><g transform="translate(212.250489, 200.698496)"><g><path d="M 8.695312 0 L 8.695312 -39.839844 L 17.351562 -39.839844 C 22.125 -39.839844 24.023438 -36.925781 24.023438 -33.125 C 24.023438 -22.527344 11.808594 -22.042969 11.808594 -18.121094 C 11.808594 -15.53125 16.988281 -7.523438 20.386719 -3.074219 C 22.488281 -0.324219 22.609375 0 24.996094 0 L 31.667969 0 L 31.667969 -0.242188 C 28.757812 -0.242188 16.503906 -18.078125 16.503906 -20.871094 C 16.503906 -23.335938 29.890625 -23.742188 29.890625 -33.488281 C 29.890625 -36.804688 27.746094 -40.445312 23.335938 -40.445312 L 2.832031 -40.445312 L 2.832031 0 Z M 8.695312 0 "/></g></g></g><g fill="#000000" fill-opacity="1"><g transform="translate(243.918986, 200.698496)"><g><path d="M 12.699219 0 C 27.464844 0 31.710938 -10.433594 31.710938 -20.222656 C 31.710938 -30.011719 27.464844 -40.445312 12.699219 -40.445312 L 2.832031 -40.445312 L 2.832031 0 Z M 11.445312 -39.839844 C 23.742188 -39.839844 25.84375 -28.230469 25.84375 -20.222656 C 25.84375 -12.214844 23.742188 -0.605469 11.445312 -0.605469 L 8.695312 -0.605469 L 8.695312 -39.839844 Z M 11.445312 -39.839844 "/></g></g></g><g fill="#000000" fill-opacity="1"><g transform="translate(277.245736, 200.698496)"><g><path d="M 1.617188 -13.589844 C 1.617188 -3.277344 10.597656 0.40625 20.34375 0.40625 C 23.09375 0.40625 25.15625 0 27.300781 -1.011719 L 29.726562 -8.050781 C 26.976562 -5.742188 23.582031 -5.460938 20.183594 -5.460938 C 11.121094 -5.460938 2.347656 -7.320312 2.347656 -13.265625 C 2.347656 -15.371094 3.921875 -16.625 7.5625 -16.625 C 12.863281 -16.625 16.945312 -12.742188 22.933594 -12.941406 C 25.765625 -13.023438 28.3125 -14.925781 28.3125 -17.957031 C 28.3125 -26.007812 7.160156 -23.214844 7.160156 -30.902344 C 7.160156 -33.730469 9.667969 -35.148438 15.570312 -35.148438 C 20.75 -35.148438 26.128906 -33.773438 28.472656 -32.074219 L 30.132812 -38.140625 C 27.625 -40.164062 20.667969 -40.851562 16.503906 -40.851562 C 4.855469 -40.851562 2.589844 -35.351562 2.589844 -32.882812 C 2.589844 -26.898438 8.414062 -25.804688 14.117188 -24.429688 C 18.445312 -23.378906 25.359375 -22.125 25.359375 -19.738281 C 25.359375 -18.808594 24.511719 -18.445312 23.582031 -18.445312 C 19.820312 -18.445312 16.746094 -21.273438 11.367188 -21.273438 C 5.863281 -21.273438 1.617188 -18.726562 1.617188 -13.589844 Z M 1.617188 -13.589844 "/></g></g></g><g fill="#000000" fill-opacity="1"><g transform="translate(308.267106, 200.698496)"><g><path d="M 2.832031 0 L 11.242188 0 C 6.109375 -9.222656 3.558594 -19.898438 3.558594 -35.351562 C 3.558594 -35.351562 4.570312 -36.078125 6.835938 -31.75 C 8.007812 -29.484375 10.3125 -24.671875 14.195312 -17.269531 C 19.171875 -7.804688 24.550781 0.40625 29.527344 0.40625 C 30.09375 0.40625 30.902344 0.242188 31.347656 0 L 31.347656 -40.445312 L 22.933594 -40.445312 C 28.070312 -31.226562 30.617188 -20.546875 30.617188 -5.417969 C 30.617188 -5.417969 29.890625 -4.570312 27.707031 -6.917969 C 25.964844 -8.816406 23.296875 -12.742188 19.253906 -20.222656 C 11.648438 -34.296875 10.679688 -40.851562 4.652344 -40.851562 C 4.085938 -40.851562 3.277344 -40.6875 2.832031 -40.445312 Z M 2.832031 0 "/></g></g></g></svg>